<svg version="1.0" xmlns="http://www.w3.org/2000/svg" xmlns:xlink="http://www.w3.org/1999/xlink" width="100%" height="100%" viewBox="0 0 340.000000 250.000000" preserveAspectRatio="xMidYMid meet" color-interpolation-filters="sRGB" style="margin: auto;"> 
  <rect x="0" y="0" width="100%" height="100%" fill="#e22027" fill-opacity="1" class="background"></rect> 
  <g fill="#feffff" class="bordersvg b-d1" transform="translate(79.15499877929688,82.7249984741211)">
    <polyline stroke="#feffff" stroke-width="3" fill-opacity="0" points="90.84500122070312,20 90.84500122070312,0 0,0 0,84.54999923706055 90.84500122070312,84.54999923706055 90.84500122070312,64.54999923706055"></polyline> 
    <g transform="translate(0,20)">
      <g>
        <rect data-gra="graph-name-bg" stroke-width="2" class="i-icon-bg" x="0" y="0" width="181.69000244140625" height="44.54999923706055" fill-opacity="0"></rect> 
      </g> 
      <g transform="translate(10,3)">
        <g data-gra="path-name" fill-rule="" class="tp-name">
          <g transform="scale(1.3)">
            <g>
              <path d="M10.56 0Q7.09 0 4.95-2.04 2.81-4.07 2.81-7.48L2.81-7.48 2.81-21.18Q2.81-23.54 4.1-25.19 5.39-26.84 7.32-27.45L7.32-27.45 14.69-30.03 14.69-38.5 19.09-38.5 19.09 0 10.56 0ZM11.49-3.3L14.69-3.3 14.69-26.4 9.79-24.75Q8.36-24.31 7.78-23.35 7.21-22.39 7.21-20.3L7.21-20.3 7.21-7.48Q7.21-5.5 8.36-4.4 9.52-3.3 11.49-3.3L11.49-3.3ZM34.21 0L29.76 0 23.21-28.6 27.78-28.6 32.01-5.55 36.19-28.6 40.76-28.6 34.21 0ZM49.28-33.27L44.88-33.27 44.88-37.67 49.28-37.67 49.28-33.27ZM49.28 0L44.88 0 44.88-28.6 49.28-28.6 49.28 0ZM61.93 0Q58.91 0 57.12-1.81 55.33-3.63 55.33-6.71L55.33-6.71 55.33-21.34Q55.33-24.8 57.14-26.7 58.96-28.6 62.42-28.6L62.42-28.6 68.53-28.6 68.53-25.3 62.53-25.3Q61.27-25.3 60.5-24.45 59.73-23.59 59.73-22.27L59.73-22.27 59.73-6.33Q59.73-5 60.53-4.15 61.32-3.3 62.59-3.3L62.59-3.3 68.53-3.3 68.53 0 61.93 0ZM78.1 0Q75.08 0 73.29-1.81 71.5-3.63 71.5-6.71L71.5-6.71 71.5-21.34Q71.5-24.91 73.48-26.95 75.46-28.98 79.36-28.98L79.36-28.98Q83.27-28.98 85.22-26.95 87.17-24.91 87.17-21.34L87.17-21.34 87.17-18.81Q87.17-16.5 85.85-15.32 84.53-14.13 82.39-13.53L82.39-13.53 75.9-11.71 75.9-6.33Q75.9-5 76.7-4.15 77.5-3.3 78.76-3.3L78.76-3.3 84.7-3.3 84.7 0 78.1 0ZM75.9-15.18L79.25-16.11Q81.07-16.61 81.7-16.86 82.33-17.11 82.55-17.6 82.78-18.09 82.78-19.25L82.78-19.25 82.78-22.27Q82.78-24.04 81.87-24.86 80.96-25.68 79.36-25.68L79.36-25.68Q77.83-25.68 76.86-24.8 75.9-23.93 75.9-22.27L75.9-22.27 75.9-15.18ZM91.58 0L91.58-38.5 95.98-38.5 95.98-29.92 103.34-27.34Q105.27-26.68 106.56-25.05 107.86-23.43 107.86-21.07L107.86-21.07 107.86-6.93Q107.86-3.96 105.77-1.98 103.68 0 100.65 0L100.65 0 91.58 0ZM95.98-3.3L99.72-3.3Q101.26-3.3 102.36-4.34 103.46-5.39 103.46-6.93L103.46-6.93 103.46-20.18Q103.46-22.27 102.88-23.24 102.3-24.2 100.87-24.64L100.87-24.64 95.98-26.29 95.98-3.3ZM117.48-33.27L113.08-33.27 113.08-37.67 117.48-37.67 117.48-33.27ZM117.48 0L113.08 0 113.08-28.6 117.48-28.6 117.48 0ZM128.53 0L124.14 0 124.14-38.5 128.53-38.5 128.53 0ZM140.8 0Q137.78 0 135.99-1.81 134.2-3.63 134.2-6.71L134.2-6.71 134.2-21.34Q134.2-24.91 136.18-26.95 138.16-28.98 142.06-28.98L142.06-28.98Q145.97-28.98 147.92-26.95 149.88-24.91 149.88-21.34L149.88-21.34 149.88-18.81Q149.88-16.5 148.56-15.32 147.24-14.13 145.09-13.53L145.09-13.53 138.6-11.71 138.6-6.33Q138.6-5 139.4-4.15 140.19-3.3 141.46-3.3L141.46-3.3 147.4-3.3 147.4 0 140.8 0ZM138.6-15.18L141.96-16.11Q143.77-16.61 144.4-16.86 145.03-17.11 145.25-17.6 145.47-18.09 145.47-19.25L145.47-19.25 145.47-22.27Q145.47-24.04 144.57-24.86 143.66-25.68 142.06-25.68L142.06-25.68Q140.53-25.68 139.56-24.8 138.6-23.93 138.6-22.27L138.6-22.27 138.6-15.18ZM162.25 0Q159.22 0 157.47-1.81 155.7-3.63 155.7-6.71L155.7-6.71 155.7-25.3 152.41-25.3 152.41-28.6 155.7-28.6 155.7-36.91 160.1-38.55 160.1-28.6 164.5-28.6 164.5-25.3 160.1-25.3 160.1-6.33Q160.1-5 160.85-4.15 161.59-3.3 162.85-3.3L162.85-3.3 164.5-3.3 164.5 0 162.25 0Z" transform="translate(-2.809999942779541, 38.54999923706055)"></path>
            </g> 
          </g>
        </g>
      </g> 
    </g>
  </g>
</svg>
